PathFileType	4	(X/Y/Z)	./motion_analysis/DM_ngait_tm_slow1_new.trc
DataRate	CameraRate	NumFrames	NumMarkers	Units	OrigDataRate	OrigDataStartFrame	OrigNumFrames
120	120	4	68	mm	120	0	1585
Frame#	Time	Sternum			Neck			R_Shoulder			L_Shoulder			Xiphoid			Thoracic			R_Asis			L_Asis			R_Psis			L_Psis			Lumbar			R_Elbow			R_ElbowMedial			R_ShoulderAnterior			R_ShoulderPosterior			R_Wrist			R_Radius			R_Ulna			L_Elbow			L_ElbowMedial			L_ShoulderAnterior			L_ShoulderPosterior			L_Wrist			L_Ulna			L_Radius			L_Thigh_Superior			L_Thigh_Inferior			L_Thigh_Lateral			L_Knee_Lateral			L_Knee_Medial			L_Patella			L_Shank_Superior			L_Shank_Inferior			L_Shank_Lateral			L_Ankle_Lateral			L_Ankle_Medial			R_Thigh_Superior			R_Thigh_Inferior			R_Thigh_Lateral			R_Knee_Lateral			R_Knee_Medial			R_Patella			R_Shank_Superior			R_Shank_Inferior			R_Shank_Lateral			R_Ankle_Lateral			RankleMedial			R_Heel			R_Toe			R_Midfoot_Medial			R_Midfoot_Lateral			R_Hindfoot			R_Midfoot_Superior			R_ToeMedial			R_ToeLateral			L_Heel			L_Toe			L_Midfoot_Medial			L_Midfoot_Lateral			L_Hindfoot			L_Midfoot_Superior			L_ToeMedial			L_ToeLateral			Oglobal			Sacral			Xglobal			Yglobal			Zglobal			
		X1	Y1	Z1	X2	Y2	Z2	X3	Y3	Z3	X4	Y4	Z4	X5	Y5	Z5	X6	Y6	Z6	X7	Y7	Z7	X8	Y8	Z8	X9	Y9	Z9	X10	Y10	Z10	X11	Y11	Z11	X12	Y12	Z12	X13	Y13	Z13	X14	Y14	Z14	X15	Y15	Z15	X16	Y16	Z16	X17	Y17	Z17	X18	Y18	Z18	X19	Y19	Z19	X20	Y20	Z20	X21	Y21	Z21	X22	Y22	Z22	X23	Y23	Z23	X24	Y24	Z24	X25	Y25	Z25	X26	Y26	Z26	X27	Y27	Z27	X28	Y28	Z28	X29	Y29	Z29	X30	Y30	Z30	X31	Y31	Z31	X32	Y32	Z32	X33	Y33	Z33	X34	Y34	Z34	X35	Y35	Z35	X36	Y36	Z36	X37	Y37	Z37	X38	Y38	Z38	X39	Y39	Z39	X40	Y40	Z40	X41	Y41	Z41	X42	Y42	Z42	X43	Y43	Z43	X44	Y44	Z44	X45	Y45	Z45	X46	Y46	Z46	X47	Y47	Z47	X48	Y48	Z48	X49	Y49	Z49	X50	Y50	Z50	X51	Y51	Z51	X52	Y52	Z52	X53	Y53	Z53	X54	Y54	Z54	X55	Y55	Z55	X56	Y56	Z56	X57	Y57	Z57	X58	Y58	Z58	X59	Y59	Z59	X60	Y60	Z60	X61	Y61	Z61	X62	Y62	Z62	X63	Y63	Z63	X64	Y64	Z64	X65	Y65	Z65	X66	Y66	Z66	X67	Y67	Z67	X68	Y68	Z68	

1	0.008333	-796.299	1403.98	416.066	-639.245	1484.06	395.483	-744.12	1421.81	236.512	-686.059	1452.76	579.601	-815.704	1233.1	418.462	-552.171	1297.04	404.494	-740.21	1002.71	281.733	-735.693	1007.56	560.354	-536.694	1051.16	389.048	-536.847	1050.75	467.075	-539.617	1100.57	422.028	-710.997	1110.13	130.848	-0	0	0	-0	0	0	-0	0	0	-818.48	861.645	190.455	-804.894	872.6180000000001	232.511	-777.498	856.452	165.89	-601.722	1124.75	677.835	-0	0	0	-0	0	0	-0	0	0	-651.347	861.701	675.2859999999999	-604.528	870.136	680.308	-658.7859999999999	876.965	630.823	-698.034	835.8579999999999	594.5839999999999	-761.016	619.1849999999999	573.49	-789.61	713.796	533.318	-0	0	0	-0	0	0	-794.043	508.653	526.99	-688.726	484.404	587.519	-495.052	298.968	592.025	-616.894	359.469	525.428	-0	0	0	-0	0	0	-645.548	821.068	260.269	-656.426	606.13	304.002	-740.84	665.797	348.761	-0	0	0	-0	0	0	-725.598	516.638	380.571	-0	0	0	-570.761	209.377	314.049	-649.477	326.047	382.616	-0	0	0	-0	0	0	-469.308	79.67749999999999	366.833	-769.211	64.43049999999999	358.639	-691.6079999999999	43.6116	412.64	-678.037	43.018	296.159	-567.568	43.0866	310.74	-632.592	132.924	360.479	-735.734	53.4945	403.773	-727.437	53.3619	311.098	-362.959	250.205	538.97	-589.987	58.4144	555.7430000000001	-517.919	89.8681	500.932	-502.749	98.99169999999999	614.037	-415.173	162.448	599.877	-526.3099999999999	191.901	553.398	-550.2569999999999	66.4817	509.723	-546.567	67.4378	606.586	-0	0	0	-536.771	1050.95	428.061	-200	0	0	-0	0	200	-0	200	0	
2	0.016667	-796.144	1403.72	416.489	-639.326	1484.03	395.126	-744.792	1421.66	236.685	-684.913	1452.88	579.5119999999999	-815.221	1232.8	419.245	-551.904	1297.21	403.821	-740.304	1003.63	282.536	-734.207	1007.68	561.035	-535.698	1050.74	388.824	-536.194	1051.58	466.964	-538.774	1100.79	421.917	-711.503	1109.96	131.246	-0	0	0	-0	0	0	-0	0	0	-818.607	861.634	191.219	-804.966	872.4059999999999	233.177	-777.636	856.26	166.659	-598.217	1125.55	677.556	-0	0	0	-0	0	0	-0	0	0	-646.715	862.2089999999999	676.222	-599.8630000000001	870.9059999999999	680.87	-654.5359999999999	877.303	631.768	-697.551	836.523	595.256	-762.522	620.3339999999999	574.006	-790.124	715.064	533.409	-0	0	0	-0	0	0	-796.515	510.423	527.422	-691.732	484.748	587.893	-500.991	295.928	591.912	-620.873	357.812	522.126	-0	0	0	-0	0	0	-644.597	820.891	260.72	-654.168	605.944	304.386	-738.755	665.1609999999999	349.489	-0	0	0	-0	0	0	-723.2190000000001	516.1900000000001	380.383	-0	0	0	-566.95	209.433	314.193	-645.891	325.799	382.916	-0	0	0	-0	0	0	-464.985	79.7384	366.85	-764.928	64.4906	358.66	-687.377	44.0364	412.492	-673.644	42.9561	296.033	-563.274	43.1013	310.825	-628.1180000000001	133.056	360.054	-731.4450000000001	53.5612	403.868	-723.152	53.388	311.11	-369.485	244.418	538.896	-600.601	57.5342	554.3390000000001	-528.12	87.8107	500.472	-513.014	96.5729	613.615	-423.745	157.904	599.724	-534.134	190.04	552.915	-560.923	64.8535	508.33	-557.532	66.07989999999999	605.84	-0	0	0	-535.946	1051.16	427.894	-200	0	0	-0	0	200	-0	200	0	
3	0.025	-796.034	1403.44	416.96	-639.489	1484	394.818	-745.533	1421.48	236.899	-683.907	1452.97	579.466	-814.819	1232.46	419.998	-551.602	1297.35	403.098	-740.035	1003.21	283.389	-732.615	1007.79	561.813	-535.01	1050.92	388.594	-535.145	1051.91	466.716	-538.038	1101.03	421.609	-711.909	1109.78	131.705	-0	0	0	-0	0	0	-0	0	0	-818.764	861.603	191.897	-805.1	872.244	233.867	-777.75	856.124	167.309	-594.898	1126.29	677.2190000000001	-0	0	0	-0	0	0	-0	0	0	-642.206	862.6849999999999	677.149	-595.414	871.704	681.436	-650.568	877.794	632.744	-696.905	837.148	595.947	-763.866	621.448	574.576	-790.509	716.3339999999999	533.755	-0	0	0	-0	0	0	-798.971	512.2089999999999	527.864	-694.592	485.062	588.2859999999999	-507.228	292.773	591.862	-625.876	356.876	521.943	-0	0	0	-0	0	0	-643.643	820.646	261.249	-651.904	605.6900000000001	304.86	-736.652	664.4829999999999	350.145	-0	0	0	-0	0	0	-720.078	515.763	381.245	-0	0	0	-563.063	209.438	314.24	-642.223	325.51	383.23	-0	0	0	-0	0	0	-460.767	79.7685	366.895	-760.607	64.5175	358.665	-683.122	43.9431	412.624	-669.455	43.0044	296.156	-559.047	43.1262	310.862	-624.038	133.082	360.252	-727.15	53.5824	403.93	-718.914	53.4342	311.176	-376.456	238.277	538.798	-611.46	56.5468	553.466	-539.4690000000001	86.30710000000001	500.075	-523.74	94.0124	613.2089999999999	-433.061	152.998	599.263	-542.6950000000001	188.304	553.122	-571.835	63.1182	507.467	-568.9589999999999	64.56489999999999	605.297	-0	0	0	-535.077	1051.42	427.655	-200	0	0	-0	0	200	-0	200	0	
4	0.033333	-795.95	1403.1	417.501	-639.703	1483.93	394.545	-746.384	1421.25	237.211	-682.914	1452.99	579.415	-814.379	1232.05	420.831	-551.398	1297.49	402.473	-739.713	1002.74	284.259	-730.92	1007.76	562.638	-534.295	1051.11	388.39	-534.049	1052.28	466.486	-537.284	1101.3	421.323	-712.28	1109.55	132.292	-0	0	0	-0	0	0	-0	0	0	-818.947	861.5650000000001	192.531	-805.3869999999999	872.114	234.552	-777.9109999999999	855.984	167.951	-591.7140000000001	1126.98	676.9059999999999	-0	0	0	-0	0	0	-0	0	0	-637.946	863.1559999999999	678.198	-591.17	872.4	682.015	-646.5890000000001	878.05	633.597	-695.953	837.764	596.725	-764.944	622.597	575.125	-790.7089999999999	717.61	534.391	-0	0	0	-0	0	0	-801.318	514.028	528.4640000000001	-697.48	485.337	588.73	-513.71	289.274	591.87	-631.2430000000001	355.988	522.452	-0	0	0	-0	0	0	-642.518	820.472	261.733	-649.521	605.455	305.292	-734.474	663.8150000000001	350.891	-0	0	0	-0	0	0	-716.961	515.27	381.737	-0	0	0	-559.364	209.375	313.823	-638.5890000000001	325.258	383.604	-0	0	0	-0	0	0	-456.511	79.78149999999999	366.892	-756.425	64.5428	358.752	-678.878	43.7885	412.429	-665.097	42.7793	295.975	-554.838	43.1632	310.866	-619.553	132.855	360.063	-722.968	53.5758	403.917	-714.692	53.4531	311.259	-383.934	231.72	538.703	-624.106	56.9115	553.814	-550.232	83.4575	499.58	-534.774	90.9933	612.763	-442.639	147.838	599.1130000000001	-551.252	185.613	552.443	-584.532	62.7349	507.825	-580.833	62.9227	604.974	-0	0	0	-534.172	1051.7	427.438	-200	0	0	-0	0	200	-0	200	0	
